<svg width="24px" height="auto" fill="#FFF" version="1.1" id="Capa_1" xmlns="http://www.w3.org/2000/svg" xmlns:xlink="http://www.w3.org/1999/xlink" viewBox="0 0 440 440" xml:space="preserve">
<g>
	<path d="M159.706,99.111c-23.159,0-42,18.841-42,42s18.841,42,42,42c23.159,0,42-18.841,42-42S182.866,99.111,159.706,99.111z
		 M159.706,163.111c-12.131,0-22-9.869-22-22c0-12.131,9.869-22,22-22c12.131,0,22,9.869,22,22
		C181.706,153.242,171.837,163.111,159.706,163.111z"/>
	<path d="M131.948,250.295c-23.159,0-42,18.841-42,42c0,23.159,18.841,42,42,42c23.159,0,42-18.841,42-42
		C173.948,269.136,155.107,250.295,131.948,250.295z M131.948,314.295c-12.131,0-22-9.869-22-22c0-12.131,9.869-22,22-22
		c12.131,0,22,9.869,22,22C153.948,304.426,144.079,314.295,131.948,314.295z"/>
	<path d="M416.97,206.596l-0.013-0.831c-0.064-5.279-4.222-9.598-9.494-9.864c-14.875-0.751-28.007-9.639-34.27-23.193
		c-1.245-2.694-3.623-4.696-6.489-5.465c-2.867-0.769-5.927-0.224-8.353,1.487c-6.706,4.73-14.927,7.335-23.146,7.336
		c-6.964,0-13.857-1.854-19.935-5.363c-13.458-7.77-21.242-22.803-19.83-38.299c0.269-2.956-0.789-5.879-2.888-7.977
		c-2.1-2.1-5.033-3.154-7.977-2.889c-1.195,0.109-2.411,0.164-3.614,0.164c-14.272,0-27.562-7.662-34.683-19.996
		c-7.77-13.458-6.994-30.369,1.976-43.084c1.711-2.425,2.257-5.485,1.488-8.352c-0.768-2.867-2.77-5.245-5.464-6.49
		c-13.548-6.262-22.434-19.387-23.189-34.254c-0.268-5.269-4.583-9.424-9.858-9.492l-0.816-0.013C209.777,0.01,209.137,0,208.496,0
		C93.531,0,0.001,93.531,0.001,208.496s93.53,208.496,208.495,208.496s208.495-93.531,208.495-208.496
		C416.991,207.861,416.981,207.229,416.97,206.596z M69.977,106.111c0,12.131-9.869,22-22,22c-3.145,0-6.202-0.689-9.011-1.954
		c6.407-13.138,14.294-25.425,23.448-36.643C67.139,93.617,69.977,99.608,69.977,106.111z M208.496,396.991
		C104.559,396.991,20,312.433,20,208.496c0-22.42,3.938-43.937,11.153-63.9c5.254,2.299,10.966,3.516,16.823,3.516
		c23.159,0,42-18.841,42-42c0-12.271-5.276-23.603-14.108-31.424c32.732-32.446,77.26-53.009,126.502-54.589
		c3.157,14.763,11.764,27.746,24.107,36.418c-8.064,17.495-7.341,38.179,2.48,55.19c9.771,16.925,27.278,27.985,46.567,29.748
		c1.761,19.188,12.729,36.747,29.744,46.57c9.114,5.262,19.466,8.043,29.936,8.042c8.82-0.001,17.392-1.897,25.258-5.544
		c8.676,12.343,21.661,20.947,36.427,24.102c-0.456,14.217-2.494,28.042-5.944,41.303c-4.445-1.561-9.151-2.38-13.905-2.38
		c-23.159,0-42,18.841-42,42c0,13.791,6.848,26.454,17.66,34.193C318.099,370.832,266.298,396.991,208.496,396.991z
		 M364.768,313.781c-5.935-4.016-9.724-10.811-9.724-18.234c0-12.131,9.869-22,22-22c2.725,0,5.356,0.501,7.825,1.444
		C379.662,288.757,372.892,301.761,364.768,313.781z"/>
	<path d="M246.475,206.259c-29.775,0-54,24.224-54,54s24.225,54,54,54s54-24.224,54-54S276.25,206.259,246.475,206.259z
		 M246.475,294.259c-18.748,0-34-15.253-34-34c0-18.748,15.252-34,34-34c18.748,0,34,15.252,34,34
		C280.475,279.006,265.223,294.259,246.475,294.259z"/>
</g>
</svg>